<mxfile host="Electron" modified="2023-12-11T13:31:26.602Z" agent="Mozilla/5.0 (Macintosh; Intel Mac OS X 10_15_7) AppleWebKit/537.36 (KHTML, like Gecko) draw.io/22.1.2 Chrome/114.0.5735.289 Electron/25.9.4 Safari/537.36" etag="M7AJY-8KHLFhBpUMpPIT" version="22.1.2" type="device" pages="2">
  <diagram name="main" id="nsuLR_uS429y6VCqQqTf">
    <mxGraphModel dx="1114" dy="696" grid="1" gridSize="10" guides="1" tooltips="1" connect="1" arrows="1" fold="1" page="1" pageScale="1" pageWidth="850" pageHeight="1100" math="0" shadow="0">
      <root>
        <mxCell id="0" />
        <mxCell id="1" parent="0" />
        <mxCell id="LI2VlADD8TxEGC0YYol1-1" value="Delineate Words" style="rounded=1;whiteSpace=wrap;html=1;sketch=0;container=1;recursiveResize=0;verticalAlign=top;arcSize=6;fontStyle=0;autosize=0;points=[];absoluteArcSize=1;shadow=1;strokeColor=#001DBC;fillColor=#0050ef;fontColor=#ffffff;fontFamily=Helvetica;fontSize=11;" vertex="1" parent="1">
          <mxGeometry x="200" y="120" width="130" height="125" as="geometry">
            <mxRectangle x="-98" y="-1230" width="99" height="26" as="alternateBounds" />
          </mxGeometry>
        </mxCell>
        <mxCell id="LI2VlADD8TxEGC0YYol1-2" value="input" style="rounded=1;whiteSpace=wrap;html=1;sketch=0;points=[[0,0.5,0,0,0],[1,0.5,0,0,0]];arcSize=50;fontFamily=Helvetica;fontSize=11;fontColor=default;" vertex="1" parent="LI2VlADD8TxEGC0YYol1-1">
          <mxGeometry x="-18.75" y="40" width="66" height="25" as="geometry" />
        </mxCell>
        <mxCell id="LI2VlADD8TxEGC0YYol1-3" value="output" style="rounded=1;whiteSpace=wrap;html=1;sketch=0;points=[[0,0.5,0,0,0],[1,0.5,0,0,0]];fillColor=#1ba1e2;fontColor=#ffffff;strokeColor=#006EAF;arcSize=50;fontFamily=Helvetica;fontSize=11;" vertex="1" parent="LI2VlADD8TxEGC0YYol1-1">
          <mxGeometry x="82.75" y="40" width="66" height="25" as="geometry" />
        </mxCell>
        <mxCell id="LI2VlADD8TxEGC0YYol1-4" value="error" style="rounded=1;whiteSpace=wrap;sketch=0;points=[[0,0.5,0,0,0],[1,0.5,0,0,0]];fillColor=#1ba1e2;fontColor=#ffffff;strokeColor=#006EAF;arcSize=50;fontFamily=Helvetica;fontSize=11;opacity=30;textOpacity=30;" vertex="1" parent="LI2VlADD8TxEGC0YYol1-1">
          <mxGeometry x="82.75" y="82.5" width="66" height="25" as="geometry" />
        </mxCell>
        <mxCell id="LI2VlADD8TxEGC0YYol1-5" style="edgeStyle=orthogonalEdgeStyle;shape=connector;rounded=1;orthogonalLoop=1;jettySize=auto;html=1;exitX=1;exitY=0.5;exitDx=0;exitDy=0;exitPerimeter=0;entryX=0;entryY=0.5;entryDx=0;entryDy=0;entryPerimeter=0;labelBackgroundColor=default;strokeColor=default;fontFamily=Helvetica;fontSize=11;fontColor=default;endArrow=classic;strokeWidth=2;" edge="1" parent="1" source="LI2VlADD8TxEGC0YYol1-6" target="LI2VlADD8TxEGC0YYol1-2">
          <mxGeometry relative="1" as="geometry" />
        </mxCell>
        <mxCell id="LI2VlADD8TxEGC0YYol1-6" value="input" style="rhombus;whiteSpace=wrap;html=1;rounded=1;fontStyle=1;glass=0;sketch=0;fontSize=12;points=[[0,0.5,0,0,0],[0.5,0,0,0,0],[0.5,1,0,0,0],[1,0.5,0,0,0]];shadow=1;fontFamily=Helvetica;fontColor=default;" vertex="1" parent="1">
          <mxGeometry x="30" y="132.5" width="80" height="80" as="geometry" />
        </mxCell>
        <mxCell id="LI2VlADD8TxEGC0YYol1-7" value="output" style="rhombus;whiteSpace=wrap;html=1;rounded=1;fillColor=#0050ef;fontColor=#ffffff;strokeColor=#001DBC;fontStyle=1;glass=0;sketch=0;fontSize=12;points=[[0,0.5,0,0,0],[0.5,0,0,0,0],[0.5,1,0,0,0],[1,0.5,0,0,0]];shadow=1;fontFamily=Helvetica;" vertex="1" parent="1">
          <mxGeometry x="720" y="132.5" width="80" height="80" as="geometry" />
        </mxCell>
        <mxCell id="LI2VlADD8TxEGC0YYol1-8" value="error" style="rhombus;whiteSpace=wrap;html=1;rounded=1;fillColor=#0050ef;fontColor=#ffffff;strokeColor=#001DBC;fontStyle=1;glass=0;sketch=0;fontSize=12;points=[[0,0.5,0,0,0],[0.5,0,0,0,0],[0.5,1,0,0,0],[1,0.5,0,0,0]];shadow=1;fontFamily=Helvetica;" vertex="1" parent="1">
          <mxGeometry x="720" y="280" width="80" height="80" as="geometry" />
        </mxCell>
        <mxCell id="LI2VlADD8TxEGC0YYol1-9" style="edgeStyle=orthogonalEdgeStyle;shape=connector;rounded=1;orthogonalLoop=1;jettySize=auto;html=1;exitX=1;exitY=0.5;exitDx=0;exitDy=0;exitPerimeter=0;entryX=0;entryY=0.5;entryDx=0;entryDy=0;entryPerimeter=0;labelBackgroundColor=default;strokeColor=default;fontFamily=Helvetica;fontSize=11;fontColor=default;endArrow=classic;opacity=30;" edge="1" parent="1" source="LI2VlADD8TxEGC0YYol1-4" target="LI2VlADD8TxEGC0YYol1-8">
          <mxGeometry relative="1" as="geometry">
            <Array as="points">
              <mxPoint x="400" y="215" />
              <mxPoint x="400" y="320" />
            </Array>
          </mxGeometry>
        </mxCell>
        <mxCell id="LI2VlADD8TxEGC0YYol1-10" value="Escape Whitespace" style="rounded=1;whiteSpace=wrap;html=1;sketch=0;container=1;recursiveResize=0;verticalAlign=top;arcSize=6;fontStyle=0;autosize=0;points=[];absoluteArcSize=1;shadow=1;strokeColor=#001DBC;fillColor=#0050ef;fontColor=#ffffff;fontFamily=Helvetica;fontSize=11;" vertex="1" parent="1">
          <mxGeometry x="440" y="120" width="130" height="125" as="geometry">
            <mxRectangle x="-98" y="-1230" width="99" height="26" as="alternateBounds" />
          </mxGeometry>
        </mxCell>
        <mxCell id="LI2VlADD8TxEGC0YYol1-11" value="input" style="rounded=1;whiteSpace=wrap;html=1;sketch=0;points=[[0,0.5,0,0,0],[1,0.5,0,0,0]];arcSize=50;fontFamily=Helvetica;fontSize=11;fontColor=default;" vertex="1" parent="LI2VlADD8TxEGC0YYol1-10">
          <mxGeometry x="-18.75" y="40" width="66" height="25" as="geometry" />
        </mxCell>
        <mxCell id="LI2VlADD8TxEGC0YYol1-12" value="output" style="rounded=1;whiteSpace=wrap;html=1;sketch=0;points=[[0,0.5,0,0,0],[1,0.5,0,0,0]];fillColor=#1ba1e2;fontColor=#ffffff;strokeColor=#006EAF;arcSize=50;fontFamily=Helvetica;fontSize=11;" vertex="1" parent="LI2VlADD8TxEGC0YYol1-10">
          <mxGeometry x="82.75" y="40" width="66" height="25" as="geometry" />
        </mxCell>
        <mxCell id="LI2VlADD8TxEGC0YYol1-13" value="error" style="rounded=1;whiteSpace=wrap;sketch=0;points=[[0,0.5,0,0,0],[1,0.5,0,0,0]];fillColor=#1ba1e2;fontColor=#ffffff;strokeColor=#006EAF;arcSize=50;fontFamily=Helvetica;fontSize=11;opacity=30;textOpacity=30;" vertex="1" parent="LI2VlADD8TxEGC0YYol1-10">
          <mxGeometry x="82.75" y="82.5" width="66" height="25" as="geometry" />
        </mxCell>
        <mxCell id="LI2VlADD8TxEGC0YYol1-14" style="edgeStyle=orthogonalEdgeStyle;shape=connector;rounded=1;jumpStyle=arc;orthogonalLoop=1;jettySize=auto;html=1;exitX=1;exitY=0.5;exitDx=0;exitDy=0;exitPerimeter=0;entryX=0;entryY=0.5;entryDx=0;entryDy=0;entryPerimeter=0;labelBackgroundColor=default;strokeColor=#666666;strokeWidth=1;fontFamily=Helvetica;fontSize=11;fontColor=default;endArrow=classic;fillColor=#f5f5f5;opacity=30;" edge="1" parent="1" source="LI2VlADD8TxEGC0YYol1-13" target="LI2VlADD8TxEGC0YYol1-8">
          <mxGeometry relative="1" as="geometry">
            <Array as="points">
              <mxPoint x="650" y="215" />
              <mxPoint x="650" y="320" />
            </Array>
          </mxGeometry>
        </mxCell>
        <mxCell id="LI2VlADD8TxEGC0YYol1-15" style="edgeStyle=orthogonalEdgeStyle;rounded=0;orthogonalLoop=1;jettySize=auto;html=1;exitX=1;exitY=0.5;exitDx=0;exitDy=0;exitPerimeter=0;entryX=0;entryY=0.5;entryDx=0;entryDy=0;entryPerimeter=0;" edge="1" parent="1" source="LI2VlADD8TxEGC0YYol1-3" target="LI2VlADD8TxEGC0YYol1-11">
          <mxGeometry relative="1" as="geometry" />
        </mxCell>
        <mxCell id="LI2VlADD8TxEGC0YYol1-16" style="edgeStyle=orthogonalEdgeStyle;rounded=0;orthogonalLoop=1;jettySize=auto;html=1;exitX=1;exitY=0.5;exitDx=0;exitDy=0;exitPerimeter=0;" edge="1" parent="1" source="LI2VlADD8TxEGC0YYol1-12" target="LI2VlADD8TxEGC0YYol1-7">
          <mxGeometry relative="1" as="geometry" />
        </mxCell>
      </root>
    </mxGraphModel>
  </diagram>
  <diagram id="qxztQEq_bGGPzqZawQ76" name="Delineate Words">
    <mxGraphModel dx="1114" dy="696" grid="1" gridSize="10" guides="1" tooltips="1" connect="1" arrows="1" fold="1" page="1" pageScale="1" pageWidth="850" pageHeight="1100" math="0" shadow="0">
      <root>
        <mxCell id="0" />
        <mxCell id="1" parent="0" />
        <mxCell id="BpZOtt6paTmxXmku3tiE-1" value="output" style="rhombus;whiteSpace=wrap;html=1;rounded=1;fillColor=#0050ef;fontColor=#ffffff;strokeColor=#001DBC;fontStyle=1;glass=0;sketch=0;fontSize=12;points=[[0,0.5,0,0,0],[0.5,0,0,0,0],[0.5,1,0,0,0],[1,0.5,0,0,0]];shadow=1;" vertex="1" parent="1">
          <mxGeometry x="735" y="342.5" width="80" height="80" as="geometry" />
        </mxCell>
        <mxCell id="BpZOtt6paTmxXmku3tiE-2" value="Transpiler" style="rounded=1;whiteSpace=wrap;html=1;sketch=0;container=1;recursiveResize=0;verticalAlign=top;arcSize=6;fontStyle=1;autosize=0;points=[];absoluteArcSize=1;shadow=1;strokeColor=#001DBC;fillColor=#0050ef;fontColor=#ffffff;" vertex="1" parent="1">
          <mxGeometry x="455" y="240" width="130" height="210" as="geometry">
            <mxRectangle x="-98" y="-1230" width="99" height="26" as="alternateBounds" />
          </mxGeometry>
        </mxCell>
        <mxCell id="BpZOtt6paTmxXmku3tiE-3" value="grammarfn" style="rounded=1;whiteSpace=wrap;html=1;sketch=0;points=[[0,0.5,0,0,0],[1,0.5,0,0,0]];arcSize=50;" vertex="1" parent="BpZOtt6paTmxXmku3tiE-2">
          <mxGeometry x="-20" y="77.5" width="66" height="25" as="geometry" />
        </mxCell>
        <mxCell id="BpZOtt6paTmxXmku3tiE-4" value="semanticsfn" style="rounded=1;whiteSpace=wrap;html=1;sketch=0;points=[[0,0.5,0,0,0],[1,0.5,0,0,0]];arcSize=50;" vertex="1" parent="BpZOtt6paTmxXmku3tiE-2">
          <mxGeometry x="-20" y="110" width="66" height="25" as="geometry" />
        </mxCell>
        <mxCell id="BpZOtt6paTmxXmku3tiE-5" value="grammar name" style="rounded=1;whiteSpace=wrap;html=1;sketch=0;points=[[0,0.5,0,0,0],[1,0.5,0,0,0]];arcSize=50;" vertex="1" parent="BpZOtt6paTmxXmku3tiE-2">
          <mxGeometry x="-20" y="40" width="100" height="25" as="geometry" />
        </mxCell>
        <mxCell id="BpZOtt6paTmxXmku3tiE-6" value="input" style="rounded=1;whiteSpace=wrap;html=1;sketch=0;points=[[0,0.5,0,0,0],[1,0.5,0,0,0]];arcSize=50;" vertex="1" parent="BpZOtt6paTmxXmku3tiE-2">
          <mxGeometry x="-20" y="150" width="66" height="25" as="geometry" />
        </mxCell>
        <mxCell id="BpZOtt6paTmxXmku3tiE-7" value="output" style="rounded=1;whiteSpace=wrap;html=1;sketch=0;points=[[0,0.5,0,0,0],[1,0.5,0,0,0]];fillColor=#1ba1e2;fontColor=#ffffff;strokeColor=#006EAF;arcSize=50;" vertex="1" parent="BpZOtt6paTmxXmku3tiE-2">
          <mxGeometry x="90" y="130" width="66" height="25" as="geometry" />
        </mxCell>
        <mxCell id="BpZOtt6paTmxXmku3tiE-8" value="error" style="rounded=1;whiteSpace=wrap;html=1;sketch=0;points=[[0,0.5,0,0,0],[1,0.5,0,0,0]];fillColor=#1ba1e2;fontColor=#ffffff;strokeColor=#006EAF;arcSize=50;opacity=30;textOpacity=30;" vertex="1" parent="BpZOtt6paTmxXmku3tiE-2">
          <mxGeometry x="90" y="172.5" width="66" height="25" as="geometry" />
        </mxCell>
        <mxCell id="BpZOtt6paTmxXmku3tiE-9" style="edgeStyle=orthogonalEdgeStyle;shape=connector;rounded=1;orthogonalLoop=1;jettySize=auto;html=1;exitX=1;exitY=0.5;exitDx=0;exitDy=0;exitPerimeter=0;entryX=0;entryY=0.5;entryDx=0;entryDy=0;entryPerimeter=0;labelBackgroundColor=default;strokeColor=default;fontFamily=Helvetica;fontSize=11;fontColor=default;endArrow=classic;strokeWidth=2;" edge="1" parent="1" source="BpZOtt6paTmxXmku3tiE-7" target="BpZOtt6paTmxXmku3tiE-1">
          <mxGeometry relative="1" as="geometry" />
        </mxCell>
        <mxCell id="BpZOtt6paTmxXmku3tiE-10" value="error" style="rhombus;whiteSpace=wrap;html=1;rounded=1;fillColor=#0050ef;fontColor=#ffffff;strokeColor=#001DBC;fontStyle=1;glass=0;sketch=0;fontSize=12;points=[[0,0.5,0,0,0],[0.5,0,0,0,0],[0.5,1,0,0,0],[1,0.5,0,0,0]];shadow=1;" vertex="1" parent="1">
          <mxGeometry x="735" y="450" width="80" height="80" as="geometry" />
        </mxCell>
        <mxCell id="BpZOtt6paTmxXmku3tiE-11" style="edgeStyle=orthogonalEdgeStyle;shape=connector;rounded=1;orthogonalLoop=1;jettySize=auto;html=1;exitX=1;exitY=0.5;exitDx=0;exitDy=0;exitPerimeter=0;entryX=0;entryY=0.5;entryDx=0;entryDy=0;entryPerimeter=0;labelBackgroundColor=default;strokeColor=#666666;fontFamily=Helvetica;fontSize=11;fontColor=default;endArrow=classic;strokeWidth=1;fillColor=#f5f5f5;opacity=30;" edge="1" parent="1" source="BpZOtt6paTmxXmku3tiE-8" target="BpZOtt6paTmxXmku3tiE-10">
          <mxGeometry relative="1" as="geometry" />
        </mxCell>
        <mxCell id="BpZOtt6paTmxXmku3tiE-12" style="edgeStyle=orthogonalEdgeStyle;shape=connector;rounded=1;orthogonalLoop=1;jettySize=auto;html=1;exitX=1;exitY=0.5;exitDx=0;exitDy=0;exitPerimeter=0;entryX=0;entryY=0.5;entryDx=0;entryDy=0;entryPerimeter=0;labelBackgroundColor=default;strokeColor=default;fontFamily=Helvetica;fontSize=11;fontColor=default;endArrow=classic;strokeWidth=2;" edge="1" parent="1" source="BpZOtt6paTmxXmku3tiE-16" target="BpZOtt6paTmxXmku3tiE-6">
          <mxGeometry relative="1" as="geometry">
            <Array as="points">
              <mxPoint x="405" y="560" />
              <mxPoint x="405" y="403" />
            </Array>
          </mxGeometry>
        </mxCell>
        <mxCell id="BpZOtt6paTmxXmku3tiE-13" style="edgeStyle=orthogonalEdgeStyle;shape=connector;rounded=1;jumpStyle=arc;orthogonalLoop=1;jettySize=auto;html=1;exitX=1;exitY=0.5;exitDx=0;exitDy=0;exitPerimeter=0;entryX=0;entryY=0.5;entryDx=0;entryDy=0;entryPerimeter=0;labelBackgroundColor=default;strokeColor=#666666;strokeWidth=1;fontFamily=Helvetica;fontSize=11;fontColor=default;endArrow=classic;fillColor=#f5f5f5;opacity=30;" edge="1" parent="1" source="BpZOtt6paTmxXmku3tiE-16" target="BpZOtt6paTmxXmku3tiE-18">
          <mxGeometry relative="1" as="geometry" />
        </mxCell>
        <mxCell id="BpZOtt6paTmxXmku3tiE-14" style="edgeStyle=orthogonalEdgeStyle;shape=connector;rounded=1;jumpStyle=arc;orthogonalLoop=1;jettySize=auto;html=1;exitX=1;exitY=0.5;exitDx=0;exitDy=0;exitPerimeter=0;entryX=0;entryY=0.5;entryDx=0;entryDy=0;entryPerimeter=0;labelBackgroundColor=default;strokeColor=#666666;strokeWidth=1;fontFamily=Helvetica;fontSize=11;fontColor=default;endArrow=classic;fillColor=#f5f5f5;opacity=30;" edge="1" parent="1" source="BpZOtt6paTmxXmku3tiE-16" target="BpZOtt6paTmxXmku3tiE-21">
          <mxGeometry relative="1" as="geometry" />
        </mxCell>
        <mxCell id="BpZOtt6paTmxXmku3tiE-15" style="edgeStyle=orthogonalEdgeStyle;shape=connector;rounded=1;jumpStyle=arc;orthogonalLoop=1;jettySize=auto;html=1;exitX=1;exitY=0.5;exitDx=0;exitDy=0;exitPerimeter=0;entryX=0;entryY=0.5;entryDx=0;entryDy=0;entryPerimeter=0;labelBackgroundColor=default;strokeColor=#666666;strokeWidth=1;fontFamily=Helvetica;fontSize=11;fontColor=default;endArrow=classic;fillColor=#f5f5f5;opacity=30;" edge="1" parent="1" source="BpZOtt6paTmxXmku3tiE-16" target="BpZOtt6paTmxXmku3tiE-24">
          <mxGeometry relative="1" as="geometry" />
        </mxCell>
        <mxCell id="BpZOtt6paTmxXmku3tiE-16" value="input" style="rhombus;whiteSpace=wrap;html=1;rounded=1;fontStyle=1;glass=0;sketch=0;fontSize=12;points=[[0,0.5,0,0,0],[0.5,0,0,0,0],[0.5,1,0,0,0],[1,0.5,0,0,0]];shadow=1;" vertex="1" parent="1">
          <mxGeometry y="520" width="80" height="80" as="geometry" />
        </mxCell>
        <mxCell id="BpZOtt6paTmxXmku3tiE-17" value="&#39;Word&#39;" style="rounded=1;whiteSpace=wrap;html=1;sketch=0;container=1;recursiveResize=0;verticalAlign=top;arcSize=6;fontStyle=1;autosize=0;points=[];absoluteArcSize=1;shadow=1;strokeColor=#001DBC;fillColor=#0050ef;fontColor=#ffffff;fontFamily=Helvetica;fontSize=11;dashed=1;opacity=30;" vertex="1" parent="1">
          <mxGeometry x="200" y="180" width="130" height="70" as="geometry">
            <mxRectangle x="-98" y="-1230" width="99" height="26" as="alternateBounds" />
          </mxGeometry>
        </mxCell>
        <mxCell id="BpZOtt6paTmxXmku3tiE-18" value="go" style="rounded=1;whiteSpace=wrap;html=1;sketch=0;points=[[0,0.5,0,0,0],[1,0.5,0,0,0]];arcSize=50;fontFamily=Helvetica;fontSize=11;fontColor=default;dashed=1;textOpacity=50;opacity=30;" vertex="1" parent="BpZOtt6paTmxXmku3tiE-17">
          <mxGeometry x="-16.75" y="27.5" width="66" height="25" as="geometry" />
        </mxCell>
        <mxCell id="BpZOtt6paTmxXmku3tiE-19" value="output" style="rounded=1;whiteSpace=wrap;html=1;sketch=0;points=[[0,0.5,0,0,0],[1,0.5,0,0,0]];fillColor=#1ba1e2;fontColor=#ffffff;strokeColor=#006EAF;arcSize=50;fontFamily=Helvetica;fontSize=11;opacity=30;" vertex="1" parent="BpZOtt6paTmxXmku3tiE-17">
          <mxGeometry x="84.75" y="27.5" width="66" height="25" as="geometry" />
        </mxCell>
        <mxCell id="BpZOtt6paTmxXmku3tiE-20" value="&#39;rt/word.ohm&#39;" style="rounded=1;whiteSpace=wrap;html=1;sketch=0;container=1;recursiveResize=0;verticalAlign=top;arcSize=6;fontStyle=1;autosize=0;points=[];absoluteArcSize=1;shadow=1;strokeColor=#001DBC;fillColor=#0050ef;fontColor=#ffffff;fontFamily=Helvetica;fontSize=11;dashed=1;opacity=30;" vertex="1" parent="1">
          <mxGeometry x="200" y="290" width="130" height="70" as="geometry">
            <mxRectangle x="-98" y="-1230" width="99" height="26" as="alternateBounds" />
          </mxGeometry>
        </mxCell>
        <mxCell id="BpZOtt6paTmxXmku3tiE-21" value="go" style="rounded=1;whiteSpace=wrap;html=1;sketch=0;points=[[0,0.5,0,0,0],[1,0.5,0,0,0]];arcSize=50;fontFamily=Helvetica;fontSize=11;fontColor=default;dashed=1;textOpacity=50;opacity=30;" vertex="1" parent="BpZOtt6paTmxXmku3tiE-20">
          <mxGeometry x="-16.75" y="27.5" width="66" height="25" as="geometry" />
        </mxCell>
        <mxCell id="BpZOtt6paTmxXmku3tiE-22" value="output" style="rounded=1;whiteSpace=wrap;html=1;sketch=0;points=[[0,0.5,0,0,0],[1,0.5,0,0,0]];fillColor=#1ba1e2;fontColor=#ffffff;strokeColor=#006EAF;arcSize=50;fontFamily=Helvetica;fontSize=11;opacity=30;" vertex="1" parent="BpZOtt6paTmxXmku3tiE-20">
          <mxGeometry x="84.75" y="27.5" width="66" height="25" as="geometry" />
        </mxCell>
        <mxCell id="BpZOtt6paTmxXmku3tiE-23" value="&#39;rt/word.sem.js&#39;" style="rounded=1;whiteSpace=wrap;html=1;sketch=0;container=1;recursiveResize=0;verticalAlign=top;arcSize=6;fontStyle=1;autosize=0;points=[];absoluteArcSize=1;shadow=1;strokeColor=#001DBC;fillColor=#0050ef;fontColor=#ffffff;fontFamily=Helvetica;fontSize=11;dashed=1;opacity=30;" vertex="1" parent="1">
          <mxGeometry x="200" y="400" width="130" height="70" as="geometry">
            <mxRectangle x="-98" y="-1230" width="99" height="26" as="alternateBounds" />
          </mxGeometry>
        </mxCell>
        <mxCell id="BpZOtt6paTmxXmku3tiE-24" value="go" style="rounded=1;whiteSpace=wrap;html=1;sketch=0;points=[[0,0.5,0,0,0],[1,0.5,0,0,0]];arcSize=50;fontFamily=Helvetica;fontSize=11;fontColor=default;dashed=1;textOpacity=50;opacity=30;" vertex="1" parent="BpZOtt6paTmxXmku3tiE-23">
          <mxGeometry x="-16.75" y="27.5" width="66" height="25" as="geometry" />
        </mxCell>
        <mxCell id="BpZOtt6paTmxXmku3tiE-25" value="output" style="rounded=1;whiteSpace=wrap;html=1;sketch=0;points=[[0,0.5,0,0,0],[1,0.5,0,0,0]];fillColor=#1ba1e2;fontColor=#ffffff;strokeColor=#006EAF;arcSize=50;fontFamily=Helvetica;fontSize=11;opacity=30;" vertex="1" parent="BpZOtt6paTmxXmku3tiE-23">
          <mxGeometry x="84.75" y="27.5" width="66" height="25" as="geometry" />
        </mxCell>
        <mxCell id="BpZOtt6paTmxXmku3tiE-26" style="edgeStyle=orthogonalEdgeStyle;shape=connector;rounded=1;jumpStyle=arc;orthogonalLoop=1;jettySize=auto;html=1;exitX=1;exitY=0.5;exitDx=0;exitDy=0;exitPerimeter=0;entryX=0;entryY=0.5;entryDx=0;entryDy=0;entryPerimeter=0;labelBackgroundColor=default;strokeColor=#666666;fontFamily=Helvetica;fontSize=11;fontColor=default;endArrow=classic;fillColor=#f5f5f5;strokeWidth=2;" edge="1" parent="1" source="BpZOtt6paTmxXmku3tiE-19" target="BpZOtt6paTmxXmku3tiE-5">
          <mxGeometry relative="1" as="geometry">
            <Array as="points">
              <mxPoint x="370" y="220" />
              <mxPoint x="370" y="293" />
            </Array>
          </mxGeometry>
        </mxCell>
        <mxCell id="BpZOtt6paTmxXmku3tiE-27" style="edgeStyle=orthogonalEdgeStyle;shape=connector;rounded=1;jumpStyle=arc;orthogonalLoop=1;jettySize=auto;html=1;exitX=1;exitY=0.5;exitDx=0;exitDy=0;exitPerimeter=0;entryX=0;entryY=0.5;entryDx=0;entryDy=0;entryPerimeter=0;labelBackgroundColor=default;strokeColor=#666666;strokeWidth=2;fontFamily=Helvetica;fontSize=11;fontColor=default;endArrow=classic;fillColor=#f5f5f5;" edge="1" parent="1" source="BpZOtt6paTmxXmku3tiE-22" target="BpZOtt6paTmxXmku3tiE-3">
          <mxGeometry relative="1" as="geometry" />
        </mxCell>
        <mxCell id="BpZOtt6paTmxXmku3tiE-28" style="edgeStyle=orthogonalEdgeStyle;shape=connector;rounded=1;jumpStyle=arc;orthogonalLoop=1;jettySize=auto;html=1;exitX=1;exitY=0.5;exitDx=0;exitDy=0;exitPerimeter=0;entryX=0;entryY=0.5;entryDx=0;entryDy=0;entryPerimeter=0;labelBackgroundColor=default;strokeColor=#666666;strokeWidth=2;fontFamily=Helvetica;fontSize=11;fontColor=default;endArrow=classic;fillColor=#f5f5f5;" edge="1" parent="1" source="BpZOtt6paTmxXmku3tiE-25" target="BpZOtt6paTmxXmku3tiE-4">
          <mxGeometry relative="1" as="geometry">
            <Array as="points">
              <mxPoint x="370" y="440" />
              <mxPoint x="370" y="363" />
            </Array>
          </mxGeometry>
        </mxCell>
      </root>
    </mxGraphModel>
  </diagram>
</mxfile>
